<?xml version="1.0" standalone="no"?>
<!DOCTYPE svg PUBLIC "-//W3C//DTD SVG 20010904//EN"
 "http://www.w3.org/TR/2001/REC-SVG-20010904/DTD/svg10.dtd">
<svg version="1.0" xmlns="http://www.w3.org/2000/svg"
 width="2212.000000pt" height="540.000000pt" viewBox="0 0 2212.000000 540.000000"
 preserveAspectRatio="xMidYMid meet">

<g transform="translate(0.000000,540.000000) scale(0.100000,-0.100000)"
fill="#000000" stroke="none">
<path d="M16099 5390 c-118 -20 -245 -123 -291 -237 l-23 -58 0 -2375 0 -2375
32 -67 c42 -89 101 -151 182 -191 l66 -32 2390 0 2390 0 57 27 c80 37 152 107
191 187 l32 66 0 2385 0 2385 -32 67 c-55 118 -161 197 -289 218 -71 12 -4636
12 -4705 0z m1013 -751 c128 -43 215 -121 277 -249 35 -72 36 -79 36 -185 0
-129 -20 -190 -88 -280 -136 -179 -380 -235 -579 -134 -54 28 -153 122 -185
177 -150 256 -18 586 272 678 65 21 196 17 267 -7z m2427 -1189 c140 -15 240
-42 350 -96 77 -38 109 -61 175 -128 45 -44 96 -107 115 -139 74 -126 127
-313 150 -529 7 -60 11 -407 11 -913 l0 -815 -394 0 -394 0 -4 748 c-4 659 -7
757 -22 832 -33 160 -98 259 -205 309 -52 24 -66 26 -197 26 l-140 0 -76 -38
c-88 -43 -134 -91 -178 -182 -62 -132 -63 -137 -69 -950 l-6 -740 -395 0 -395
0 -3 1278 -2 1277 385 0 385 0 1 -172 0 -173 22 29 c110 145 195 222 316 285
172 89 334 115 570 91z m-2171 -1337 l-3 -1278 -395 0 -395 0 -3 1278 -2 1277
400 0 400 0 -2 -1277z"/>
<path d="M3000 4644 c-120 -32 -229 -125 -288 -242 -34 -69 -37 -84 -40 -176
-3 -84 0 -112 18 -165 57 -171 198 -289 369 -310 216 -27 396 74 487 273 36
79 44 208 19 302 -42 156 -178 287 -336 323 -62 15 -164 12 -229 -5z"/>
<path d="M10 2720 l0 -1880 1175 0 1175 0 0 380 0 380 -765 0 -765 0 0 1500 0
1500 -410 0 -410 0 0 -1880z"/>
<path d="M6840 2720 l0 -1880 395 0 395 0 0 630 c0 347 3 630 8 630 4 0 196
-284 426 -630 l419 -630 498 0 498 0 -504 680 c-278 374 -505 685 -505 690 0
9 521 606 923 1058 l109 122 -489 -1 -488 0 -445 -516 -445 -516 -3 1121 -2
1122 -395 0 -395 0 0 -1880z"/>
<path d="M14190 3867 l0 -734 -89 88 c-76 75 -103 94 -192 138 -174 84 -360
118 -593 108 -504 -21 -894 -353 -1056 -899 -86 -289 -82 -676 9 -954 119
-364 375 -634 721 -759 129 -46 235 -66 395 -72 172 -6 270 8 411 58 146 53
322 177 409 287 22 28 43 51 48 52 4 0 7 -76 7 -170 l0 -170 360 0 360 0 0
1880 0 1880 -395 0 -395 0 0 -733z m-384 -1112 c142 -37 254 -113 333 -226
140 -198 158 -507 44 -738 -69 -139 -194 -240 -363 -292 -97 -30 -280 -33
-380 -6 -222 59 -372 210 -431 434 -29 108 -29 287 -1 394 66 249 246 408 505
450 70 11 220 2 293 -16z"/>
<path d="M10576 3459 c-563 -59 -1006 -396 -1170 -889 -55 -167 -69 -280 -63
-499 4 -164 8 -199 35 -301 110 -422 392 -734 812 -895 190 -74 460 -110 685
-94 255 19 463 92 685 240 95 64 285 239 279 257 -5 13 -535 402 -546 401 -5
0 -26 -24 -49 -52 -83 -106 -227 -198 -364 -233 -80 -21 -226 -23 -300 -5
-196 47 -367 202 -429 388 -12 34 -21 72 -21 83 0 20 2 20 920 20 l920 0 0 98
c-2 392 -49 652 -161 874 -80 159 -194 298 -328 398 -227 170 -555 246 -905
209z m237 -574 c32 -8 81 -27 109 -41 69 -35 168 -135 201 -204 29 -59 61
-194 53 -217 -4 -11 -100 -13 -526 -13 l-520 0 0 29 c0 51 39 157 81 220 73
110 186 192 312 226 69 18 219 19 290 0z"/>
<path d="M5274 3436 c-198 -45 -384 -170 -503 -336 l-46 -65 -3 178 -2 177
-380 0 -380 0 0 -1275 0 -1275 395 0 395 0 0 664 c0 388 4 706 10 765 17 166
59 277 133 358 76 83 158 120 289 130 184 14 323 -54 391 -192 68 -136 76
-252 77 -1072 l0 -653 390 0 390 0 0 818 c0 661 -3 841 -15 942 -57 477 -237
720 -603 817 -84 22 -122 26 -287 29 -137 3 -207 0 -251 -10z"/>
<path d="M2730 2115 l0 -1275 395 0 395 0 0 1275 0 1275 -395 0 -395 0 0
-1275z"/>
<path d="M21662 730 c-103 -22 -202 -104 -250 -208 -23 -48 -27 -71 -27 -147
0 -82 3 -97 32 -156 39 -79 102 -140 181 -177 48 -23 71 -27 147 -27 76 0 99
4 147 27 79 37 142 98 181 177 29 59 32 74 32 156 0 82 -3 97 -32 156 -60 121
-167 194 -298 203 -39 3 -89 1 -113 -4z m210 -58 c155 -68 235 -252 178 -407
-46 -123 -177 -215 -305 -215 -172 0 -325 153 -325 325 0 137 97 267 233 311
57 19 161 12 219 -14z"/>
<path d="M21620 370 l0 -190 25 0 c24 0 24 2 27 83 l3 82 31 3 c29 3 34 -2 85
-82 47 -75 57 -86 82 -86 32 0 33 -4 -25 82 -54 80 -54 82 -13 97 58 21 81 90
51 150 -21 40 -56 51 -166 51 l-100 0 0 -190z m206 125 c18 -18 23 -31 19 -48
-12 -42 -42 -57 -111 -57 l-64 0 0 65 0 65 65 0 c57 0 69 -3 91 -25z"/>
</g>
</svg>
