<svg version="1.1" id="Layer_1" xmlns="http://www.w3.org/2000/svg" xmlns:xlink="http://www.w3.org/1999/xlink" x="0px" y="0px"
	 width="100%" viewBox="0 0 2212 540" enable-background="new 0 0 2212 540" xml:space="preserve">
<path fill="#FFFFFF" opacity="1.000000" stroke="none" 
	d="
M1.000000,80.000000 
	C1.000000,53.673157 1.000000,27.346313 1.000000,1.000000 
	C537.028015,1.000000 1073.056030,1.000000 1609.390625,1.355135 
	C1608.427246,1.997949 1607.123169,2.181942 1605.892822,2.588883 
	C1588.180786,8.447437 1578.053223,23.211504 1578.042725,43.221024 
	C1577.964111,193.349197 1577.990356,343.477417 1578.049438,493.605591 
	C1578.051147,497.859924 1578.207031,502.265900 1579.277222,506.342255 
	C1584.221802,525.175049 1599.067017,536.994202 1618.506104,536.995300 
	C1770.633789,537.003845 1922.761475,537.005920 2074.889160,536.958252 
	C2077.975586,536.957275 2081.119629,536.601562 2084.138672,535.954041 
	C2102.271484,532.065491 2114.867432,516.150513 2114.888916,498.870148 
	C2115.080322,345.576324 2115.090088,192.282028 2114.820801,38.988441 
	C2114.800537,27.326784 2110.416748,16.466270 2099.973145,9.589420 
	C2094.944092,6.277735 2089.342529,3.835768 2084.000000,1.000007 
	C2126.971436,1.000000 2169.943115,1.000000 2213.000000,1.000000 
	C2213.000000,167.361359 2213.000000,333.722748 2212.628418,500.365295 
	C2211.968506,498.375183 2211.956055,496.027344 2211.350098,493.844330 
	C2205.512207,472.816284 2186.729492,463.196899 2167.175537,467.294525 
	C2149.834961,470.928345 2140.896729,483.389648 2138.040283,500.697784 
	C2136.466797,510.232452 2143.934814,527.872559 2153.886230,533.793518 
	C2159.401123,537.074829 2165.928955,538.653748 2172.000000,541.000000 
	C1448.333374,541.000000 724.666687,541.000000 1.000000,541.000000 
	C1.000000,513.572571 1.000000,486.244232 1.468657,458.457947 
	C80.499329,458.000000 159.061340,458.000000 237.692963,458.000000 
	C237.692963,432.070587 237.692963,406.690155 237.692963,380.831055 
	C186.682648,380.831055 135.977402,380.831055 84.825684,380.831055 
	C84.825684,280.333893 84.825684,180.316437 84.825684,80.000000 
	C56.584114,80.000000 28.792057,80.000000 1.000000,80.000000 
M1324.445801,193.999786 
	C1322.020874,194.329788 1319.583008,194.584549 1317.173096,195.001312 
	C1290.383545,199.634079 1268.620239,213.069992 1251.716064,233.971542 
	C1232.271484,258.014099 1222.613892,286.265686 1220.227173,316.759949 
	C1219.008179,332.334442 1219.609009,348.061951 1222.891235,363.612000 
	C1228.952759,392.329315 1241.742310,416.866974 1264.442627,436.073242 
	C1285.511841,453.899445 1310.244751,461.777679 1337.116821,463.899750 
	C1352.816162,465.139526 1368.335083,463.115814 1382.897095,456.871033 
	C1397.911255,450.432465 1411.727905,442.060120 1421.854492,428.705231 
	C1422.845459,427.398438 1424.203735,426.370178 1426.237793,424.387909 
	C1426.237793,436.434784 1426.237793,447.041382 1426.237793,457.672241 
	C1450.953613,457.672241 1475.343018,457.672241 1499.635498,457.672241 
	C1499.635498,331.628113 1499.635498,205.912079 1499.635498,80.233856 
	C1472.999023,80.233856 1446.727661,80.233856 1419.791748,80.233856 
	C1419.791748,128.597916 1419.791748,176.732330 1419.791748,224.866760 
	C1419.120972,225.316284 1418.450195,225.765793 1417.779419,226.215317 
	C1416.729736,224.518524 1415.886841,222.642685 1414.597534,221.153290 
	C1403.696655,208.561127 1389.619263,201.189194 1373.691895,197.415939 
	C1357.822388,193.656448 1341.739258,191.364059 1324.445801,193.999786 
M741.500000,80.000000 
	C722.410706,80.000000 703.321411,80.000000 684.379211,80.000000 
	C684.379211,206.401825 684.379211,332.117798 684.379211,457.751526 
	C711.363831,457.751526 737.968567,457.751526 765.112305,457.751526 
	C765.112305,416.191620 765.112305,374.876495 765.112305,333.237854 
	C765.927429,333.710693 766.294434,333.799500 766.448364,334.030334 
	C793.296021,374.274231 820.107727,414.542145 847.042358,454.727692 
	C848.046875,456.226471 850.237244,457.853241 851.883850,457.862549 
	C884.358582,458.046387 916.834534,457.999390 949.661011,457.999390 
	C949.232727,456.864014 949.075317,455.839569 948.532104,455.097595 
	C940.146790,443.643921 931.752869,432.195984 923.279480,420.807312 
	C898.922241,388.069855 874.503296,355.378204 850.253296,322.561554 
	C849.414246,321.426147 849.375793,318.532379 850.227234,317.504822 
	C855.588135,311.035736 861.301636,304.858459 866.908569,298.593719 
	C872.738220,292.080200 878.641235,285.631287 884.401917,279.057465 
	C895.570068,266.312622 906.612915,253.457855 917.799561,240.729416 
	C926.180481,231.193451 934.732056,221.807663 943.151489,212.305298 
	C946.216675,208.845917 949.119568,205.242828 952.687561,201.002945 
	C919.455200,201.002945 887.322693,200.994888 855.190247,201.045349 
	C854.306458,201.046753 853.135315,201.424042 852.583557,202.052307 
	C843.901917,211.939011 835.280212,221.878738 826.684753,231.840790 
	C816.483093,243.664627 806.290955,255.496964 796.152161,267.374756 
	C791.255249,273.111511 786.575500,279.034637 781.641724,284.738739 
	C776.417786,290.778351 771.009033,296.658020 764.921509,303.455566 
	C764.921509,228.364899 764.921509,154.347733 764.921509,80.000000 
	C757.107910,80.000000 749.803955,80.000000 741.500000,80.000000 
M1181.498291,354.000000 
	C1186.925049,354.000000 1192.351807,354.000000 1196.978638,354.000000 
	C1196.978638,336.741547 1197.871216,320.106659 1196.706055,303.617218 
	C1195.711670,289.545746 1191.568726,275.867065 1186.044189,262.731232 
	C1176.261475,239.470749 1160.967407,220.858704 1138.877441,208.554276 
	C1117.087036,196.416779 1093.530151,192.269974 1068.533569,193.774780 
	C1050.213257,194.877670 1032.624512,198.135696 1015.690918,205.005157 
	C993.663879,213.940918 974.986572,227.532700 960.359314,246.311569 
	C944.386597,266.817749 936.201050,290.548584 934.204163,316.183807 
	C933.067261,330.778870 933.655640,345.502319 936.935120,360.010437 
	C942.354858,383.986938 953.065369,405.147614 970.307861,422.642517 
	C982.311462,434.821808 996.325562,444.242371 1012.155457,451.170868 
	C1028.489258,458.319885 1045.523560,462.381989 1063.075562,463.781311 
	C1073.739990,464.631531 1084.599121,463.676270 1095.328125,462.923706 
	C1110.771973,461.840393 1125.563354,457.466614 1139.058228,450.168762 
	C1150.457520,444.004120 1161.176636,436.417236 1171.572388,428.626678 
	C1177.242920,424.377014 1181.615723,418.395569 1186.753052,413.007294 
	C1168.082031,399.238586 1150.227905,386.082825 1132.390137,372.905212 
	C1130.161255,371.258636 1129.311401,372.345520 1127.836548,374.273834 
	C1111.391846,395.773773 1089.870728,405.845764 1062.710571,401.942719 
	C1039.266724,398.573761 1018.026978,378.646973 1014.554565,354.000000 
	C1069.888550,354.000000 1125.193604,354.000000 1181.498291,354.000000 
M477.000000,379.500000 
	C477.824463,354.647095 474.945312,329.678650 479.047760,304.936554 
	C481.194427,291.989716 486.037903,280.350586 497.613617,272.811005 
	C510.136688,264.654358 523.661499,264.403259 537.711365,267.870880 
	C548.209473,270.461884 554.700684,277.525879 558.836853,286.814148 
	C563.699951,297.734863 564.771729,309.639465 564.863464,321.354095 
	C565.205261,365.017731 565.000000,408.685699 565.000000,452.352020 
	C565.000000,454.123688 565.000000,455.895386 565.000000,457.659729 
	C591.975891,457.659729 618.366760,457.659729 644.004395,457.659729 
	C644.004395,401.738464 644.070251,346.159485 643.957886,290.580841 
	C643.929932,276.762573 641.190186,263.305450 636.951172,250.181320 
	C629.990723,228.631729 617.348022,211.824722 595.877014,203.045517 
	C575.991821,194.914749 555.200684,193.439972 534.008179,195.920563 
	C512.714294,198.413010 495.948334,209.088715 481.900085,224.656235 
	C479.480194,227.337860 477.404877,230.330490 475.170380,233.179474 
	C474.778168,233.039261 474.385956,232.899063 473.993744,232.758850 
	C473.993744,222.254822 473.993744,211.750793 473.993744,201.376160 
	C447.951508,201.376160 422.560181,201.376160 397.247314,201.376160 
	C397.247314,287.024872 397.247314,372.297180 397.247314,457.704285 
	C423.885956,457.704285 450.276428,457.704285 477.000000,457.704285 
	C477.000000,431.773285 477.000000,406.136658 477.000000,379.500000 
M304.500000,458.000000 
	C320.923096,458.000000 337.346161,458.000000 353.615356,458.000000 
	C353.615356,371.927643 353.615356,286.541260 353.615356,201.254395 
	C326.624908,201.254395 300.019775,201.254395 273.296295,201.254395 
	C273.296295,286.895142 273.296295,372.281219 273.296295,458.000000 
	C283.559723,458.000000 293.529846,458.000000 304.500000,458.000000 
M285.709198,83.052307 
	C281.706390,87.599640 277.190002,91.795532 273.793854,96.758049 
	C262.058380,113.906242 265.509674,139.202408 280.103882,153.511948 
	C292.193115,165.365326 306.772064,169.294724 323.433685,166.055710 
	C344.605835,161.939835 358.006470,144.655273 359.857025,125.385399 
	C361.311768,110.237122 356.095367,97.186325 344.994446,86.391685 
	C329.985779,71.797089 303.108459,70.018425 285.709198,83.052307 
z"/>
<path fill="#2867B2" opacity="1.000000" stroke="none" 
	d="
M2083.531250,1.000007 
	C2089.342529,3.835768 2094.944092,6.277735 2099.973145,9.589420 
	C2110.416748,16.466270 2114.800537,27.326784 2114.820801,38.988441 
	C2115.090088,192.282028 2115.080322,345.576324 2114.888916,498.870148 
	C2114.867432,516.150513 2102.271484,532.065491 2084.138672,535.954041 
	C2081.119629,536.601562 2077.975586,536.957275 2074.889160,536.958252 
	C1922.761475,537.005920 1770.633789,537.003845 1618.506104,536.995300 
	C1599.067017,536.994202 1584.221802,525.175049 1579.277222,506.342255 
	C1578.207031,502.265900 1578.051147,497.859924 1578.049438,493.605591 
	C1577.990356,343.477417 1577.964111,193.349197 1578.042725,43.221024 
	C1578.053223,23.211504 1588.180786,8.447437 1605.892822,2.588883 
	C1607.123169,2.181942 1608.427246,1.997949 1609.848511,1.355135 
	C1767.687500,1.000000 1925.375000,1.000000 2083.531250,1.000007 
M1788.809937,202.125580 
	C1788.539917,203.861176 1788.034790,205.596664 1788.033936,207.332382 
	C1787.995117,288.827362 1787.998535,370.322388 1788.008667,451.817383 
	C1788.008789,453.429443 1788.143066,455.041504 1788.215576,456.673523 
	C1814.283447,456.673523 1840.006470,456.673523 1866.000000,456.673523 
	C1866.000000,454.536835 1866.000000,452.724792 1866.000000,450.912720 
	C1866.000000,410.081879 1865.819214,369.249664 1866.137329,328.421295 
	C1866.209717,319.130920 1867.391724,309.734070 1869.166504,300.600647 
	C1871.492065,288.632843 1876.663818,277.878235 1887.592529,271.194641 
	C1898.500122,264.523956 1910.811035,263.786316 1922.944092,265.244415 
	C1936.319946,266.851837 1946.509888,274.155792 1950.587646,287.446838 
	C1953.239380,296.090179 1955.662720,305.220337 1955.763062,314.159607 
	C1956.276123,359.817719 1956.000000,405.484680 1956.000000,451.148560 
	C1956.000000,453.058685 1956.000000,454.968811 1956.000000,456.733246 
	C1982.732788,456.733246 2008.671631,456.733246 2034.848877,456.733246 
	C2034.907837,455.684906 2034.997070,454.882904 2034.991943,454.081482 
	C2034.666382,403.986053 2034.420410,353.889801 2033.919067,303.796112 
	C2033.830444,294.931305 2032.797729,286.065857 2031.983276,277.220734 
	C2030.640869,262.642120 2026.851440,248.710983 2019.927246,235.770615 
	C2010.416992,217.997177 1995.790894,206.626526 1976.438599,200.904358 
	C1961.875977,196.598373 1947.052612,195.509247 1932.045410,196.049988 
	C1920.145386,196.478775 1908.822388,199.869522 1898.432251,205.400940 
	C1885.552246,212.257950 1874.693237,221.680710 1867.037231,234.406189 
	C1866.342529,235.560989 1865.057617,236.360687 1864.046753,237.325287 
	C1863.649048,237.134460 1863.251343,236.943619 1862.853638,236.752792 
	C1862.853638,225.214584 1862.853638,213.676392 1862.853638,202.017136 
	C1838.079102,202.017136 1813.920532,202.017136 1788.809937,202.125580 
M1736.208618,202.128555 
	C1710.601440,202.128555 1684.994141,202.128555 1659.316162,202.128555 
	C1659.316162,287.259705 1659.316162,371.983307 1659.316162,456.635406 
	C1685.358398,456.635406 1711.082886,456.635406 1737.000000,456.635406 
	C1737.000000,454.282593 1737.000000,452.293579 1737.000000,450.304565 
	C1737.000000,385.471527 1737.008789,320.638519 1736.994385,255.805496 
	C1736.990356,238.140991 1736.916626,220.476471 1736.208618,202.128555 
M1739.099854,101.520500 
	C1736.255493,97.369080 1733.992065,92.621468 1730.457520,89.178566 
	C1720.085815,79.075386 1707.807739,74.074577 1692.863159,75.858536 
	C1681.928101,77.163879 1672.682251,81.687645 1665.408569,89.342934 
	C1653.912720,101.441643 1650.056885,116.349182 1654.155884,132.507767 
	C1658.524536,149.728897 1673.400146,163.398666 1690.919312,165.829697 
	C1708.376953,168.252228 1723.175293,162.239014 1734.202881,148.209183 
	C1740.645752,140.012115 1743.752319,130.243073 1743.727905,120.046249 
	C1743.713623,114.065788 1741.068604,108.091606 1739.099854,101.520500 
z"/>
<path fill="#2867B2" opacity="1.000000" stroke="none" 
	d="
M1.000000,80.468658 
	C28.792057,80.000000 56.584114,80.000000 84.825684,80.000000 
	C84.825684,180.316437 84.825684,280.333893 84.825684,380.831055 
	C135.977402,380.831055 186.682648,380.831055 237.692963,380.831055 
	C237.692963,406.690155 237.692963,432.070587 237.692963,458.000000 
	C159.061340,458.000000 80.499329,458.000000 1.468657,458.000000 
	C1.000000,332.312439 1.000000,206.624878 1.000000,80.468658 
z"/>
<path fill="#2867B2" opacity="1.000000" stroke="none" 
	d="
M2172.437500,541.000000 
	C2165.928955,538.653748 2159.401123,537.074829 2153.886230,533.793518 
	C2143.934814,527.872559 2136.466797,510.232452 2138.040283,500.697784 
	C2140.896729,483.389648 2149.834961,470.928345 2167.175537,467.294525 
	C2186.729492,463.196899 2205.512207,472.816284 2211.350098,493.844330 
	C2211.956055,496.027344 2211.968506,498.375183 2212.628418,500.823242 
	C2213.000000,502.388885 2213.000000,503.777802 2212.628418,505.760071 
	C2211.881104,519.185059 2205.445801,528.686218 2194.993164,535.198975 
	C2190.284912,538.132568 2184.368408,539.126160 2179.000000,541.000000 
	C2176.958252,541.000000 2174.916748,541.000000 2172.437500,541.000000 
M2150.422119,484.058929 
	C2145.882812,490.531403 2143.603271,497.479767 2143.877686,505.623779 
	C2144.471924,523.272583 2162.556885,539.171143 2183.063721,534.510742 
	C2196.246582,531.514893 2208.003906,516.215454 2207.281006,502.128143 
	C2206.651611,489.859772 2196.202148,475.820984 2183.616211,472.952301 
	C2170.538574,469.971558 2159.741211,473.556702 2150.422119,484.058929 
z"/>
<path fill="#FFFFFF" opacity="1.000000" stroke="none" 
	d="
M2179.468750,541.000000 
	C2184.368408,539.126160 2190.284912,538.132568 2194.993164,535.198975 
	C2205.445801,528.686218 2211.881104,519.185059 2212.628418,506.176758 
	C2213.000000,517.592163 2213.000000,529.184326 2213.000000,541.000000 
	C2201.980225,541.000000 2190.958740,541.000000 2179.468750,541.000000 
z"/>
<path fill="#2867B2" opacity="1.000000" stroke="none" 
	d="
M1324.905640,193.999054 
	C1341.739258,191.364059 1357.822388,193.656448 1373.691895,197.415939 
	C1389.619263,201.189194 1403.696655,208.561127 1414.597534,221.153290 
	C1415.886841,222.642685 1416.729736,224.518524 1417.779419,226.215317 
	C1418.450195,225.765793 1419.120972,225.316284 1419.791748,224.866760 
	C1419.791748,176.732330 1419.791748,128.597916 1419.791748,80.233856 
	C1446.727661,80.233856 1472.999023,80.233856 1499.635498,80.233856 
	C1499.635498,205.912079 1499.635498,331.628113 1499.635498,457.672241 
	C1475.343018,457.672241 1450.953613,457.672241 1426.237793,457.672241 
	C1426.237793,447.041382 1426.237793,436.434784 1426.237793,424.387909 
	C1424.203735,426.370178 1422.845459,427.398438 1421.854492,428.705231 
	C1411.727905,442.060120 1397.911255,450.432465 1382.897095,456.871033 
	C1368.335083,463.115814 1352.816162,465.139526 1337.116821,463.899750 
	C1310.244751,461.777679 1285.511841,453.899445 1264.442627,436.073242 
	C1241.742310,416.866974 1228.952759,392.329315 1222.891235,363.612000 
	C1219.609009,348.061951 1219.008179,332.334442 1220.227173,316.759949 
	C1222.613892,286.265686 1232.271484,258.014099 1251.716064,233.971542 
	C1268.620239,213.069992 1290.383545,199.634079 1317.173096,195.001312 
	C1319.583008,194.584549 1322.020874,194.329788 1324.905640,193.999054 
M1331.660522,271.060577 
	C1316.612061,279.311462 1307.233887,291.834076 1302.817627,308.403564 
	C1299.537476,320.710266 1299.279297,332.909973 1301.961060,345.329224 
	C1306.494751,366.325104 1318.209106,381.277161 1338.466187,388.942963 
	C1350.376587,393.450195 1362.718506,394.121368 1375.287720,392.033691 
	C1394.281616,388.878967 1409.199097,379.880157 1418.178833,362.392303 
	C1425.435791,348.259460 1427.182129,333.350342 1425.191284,317.568176 
	C1423.402466,303.387604 1418.165771,291.041595 1408.297729,280.992279 
	C1400.017700,272.560333 1389.553467,267.564850 1377.857178,265.412323 
	C1362.141235,262.520081 1346.891235,263.574860 1331.660522,271.060577 
z"/>
<path fill="#2867B2" opacity="1.000000" stroke="none" 
	d="
M742.000000,80.000000 
	C749.803955,80.000000 757.107910,80.000000 764.921509,80.000000 
	C764.921509,154.347733 764.921509,228.364899 764.921509,303.455566 
	C771.009033,296.658020 776.417786,290.778351 781.641724,284.738739 
	C786.575500,279.034637 791.255249,273.111511 796.152161,267.374756 
	C806.290955,255.496964 816.483093,243.664627 826.684753,231.840790 
	C835.280212,221.878738 843.901917,211.939011 852.583557,202.052307 
	C853.135315,201.424042 854.306458,201.046753 855.190247,201.045349 
	C887.322693,200.994888 919.455200,201.002945 952.687561,201.002945 
	C949.119568,205.242828 946.216675,208.845917 943.151489,212.305298 
	C934.732056,221.807663 926.180481,231.193451 917.799561,240.729416 
	C906.612915,253.457855 895.570068,266.312622 884.401917,279.057465 
	C878.641235,285.631287 872.738220,292.080200 866.908569,298.593719 
	C861.301636,304.858459 855.588135,311.035736 850.227234,317.504822 
	C849.375793,318.532379 849.414246,321.426147 850.253296,322.561554 
	C874.503296,355.378204 898.922241,388.069855 923.279480,420.807312 
	C931.752869,432.195984 940.146790,443.643921 948.532104,455.097595 
	C949.075317,455.839569 949.232727,456.864014 949.661011,457.999390 
	C916.834534,457.999390 884.358582,458.046387 851.883850,457.862549 
	C850.237244,457.853241 848.046875,456.226471 847.042358,454.727692 
	C820.107727,414.542145 793.296021,374.274231 766.448364,334.030334 
	C766.294434,333.799500 765.927429,333.710693 765.112305,333.237854 
	C765.112305,374.876495 765.112305,416.191620 765.112305,457.751526 
	C737.968567,457.751526 711.363831,457.751526 684.379211,457.751526 
	C684.379211,332.117798 684.379211,206.401825 684.379211,80.000000 
	C703.321411,80.000000 722.410706,80.000000 742.000000,80.000000 
z"/>
<path fill="#2867B2" opacity="1.000000" stroke="none" 
	d="
M1180.998535,354.000000 
	C1125.193604,354.000000 1069.888550,354.000000 1014.554565,354.000000 
	C1018.026978,378.646973 1039.266724,398.573761 1062.710571,401.942719 
	C1089.870728,405.845764 1111.391846,395.773773 1127.836548,374.273834 
	C1129.311401,372.345520 1130.161255,371.258636 1132.390137,372.905212 
	C1150.227905,386.082825 1168.082031,399.238586 1186.753052,413.007294 
	C1181.615723,418.395569 1177.242920,424.377014 1171.572388,428.626678 
	C1161.176636,436.417236 1150.457520,444.004120 1139.058228,450.168762 
	C1125.563354,457.466614 1110.771973,461.840393 1095.328125,462.923706 
	C1084.599121,463.676270 1073.739990,464.631531 1063.075562,463.781311 
	C1045.523560,462.381989 1028.489258,458.319885 1012.155457,451.170868 
	C996.325562,444.242371 982.311462,434.821808 970.307861,422.642517 
	C953.065369,405.147614 942.354858,383.986938 936.935120,360.010437 
	C933.655640,345.502319 933.067261,330.778870 934.204163,316.183807 
	C936.201050,290.548584 944.386597,266.817749 960.359314,246.311569 
	C974.986572,227.532700 993.663879,213.940918 1015.690918,205.005157 
	C1032.624512,198.135696 1050.213257,194.877670 1068.533569,193.774780 
	C1093.530151,192.269974 1117.087036,196.416779 1138.877441,208.554276 
	C1160.967407,220.858704 1176.261475,239.470749 1186.044189,262.731232 
	C1191.568726,275.867065 1195.711670,289.545746 1196.706055,303.617218 
	C1197.871216,320.106659 1196.978638,336.741547 1196.978638,354.000000 
	C1192.351807,354.000000 1186.925049,354.000000 1180.998535,354.000000 
M1048.500000,299.000000 
	C1071.579346,299.000000 1094.658813,299.000000 1118.018433,299.000000 
	C1117.673706,287.320862 1114.145630,277.289185 1107.148071,268.793945 
	C1096.892822,256.343964 1082.877075,251.228317 1067.239502,251.212662 
	C1045.140625,251.190521 1017.752197,266.706726 1014.568115,299.000000 
	C1025.561035,299.000000 1036.530518,299.000000 1048.500000,299.000000 
z"/>
<path fill="#2867B2" opacity="1.000000" stroke="none" 
	d="
M477.000000,380.000000 
	C477.000000,406.136658 477.000000,431.773285 477.000000,457.704285 
	C450.276428,457.704285 423.885956,457.704285 397.247314,457.704285 
	C397.247314,372.297180 397.247314,287.024872 397.247314,201.376160 
	C422.560181,201.376160 447.951508,201.376160 473.993744,201.376160 
	C473.993744,211.750793 473.993744,222.254822 473.993744,232.758850 
	C474.385956,232.899063 474.778168,233.039261 475.170380,233.179474 
	C477.404877,230.330490 479.480194,227.337860 481.900085,224.656235 
	C495.948334,209.088715 512.714294,198.413010 534.008179,195.920563 
	C555.200684,193.439972 575.991821,194.914749 595.877014,203.045517 
	C617.348022,211.824722 629.990723,228.631729 636.951172,250.181320 
	C641.190186,263.305450 643.929932,276.762573 643.957886,290.580841 
	C644.070251,346.159485 644.004395,401.738464 644.004395,457.659729 
	C618.366760,457.659729 591.975891,457.659729 565.000000,457.659729 
	C565.000000,455.895386 565.000000,454.123688 565.000000,452.352020 
	C565.000000,408.685699 565.205261,365.017731 564.863464,321.354095 
	C564.771729,309.639465 563.699951,297.734863 558.836853,286.814148 
	C554.700684,277.525879 548.209473,270.461884 537.711365,267.870880 
	C523.661499,264.403259 510.136688,264.654358 497.613617,272.811005 
	C486.037903,280.350586 481.194427,291.989716 479.047760,304.936554 
	C474.945312,329.678650 477.824463,354.647095 477.000000,380.000000 
z"/>
<path fill="#2867B2" opacity="1.000000" stroke="none" 
	d="
M304.000000,458.000000 
	C293.529846,458.000000 283.559723,458.000000 273.296295,458.000000 
	C273.296295,372.281219 273.296295,286.895142 273.296295,201.254395 
	C300.019775,201.254395 326.624908,201.254395 353.615356,201.254395 
	C353.615356,286.541260 353.615356,371.927643 353.615356,458.000000 
	C337.346161,458.000000 320.923096,458.000000 304.000000,458.000000 
z"/>
<path fill="#2867B2" opacity="1.000000" stroke="none" 
	d="
M286.069763,82.985886 
	C303.108459,70.018425 329.985779,71.797089 344.994446,86.391685 
	C356.095367,97.186325 361.311768,110.237122 359.857025,125.385399 
	C358.006470,144.655273 344.605835,161.939835 323.433685,166.055710 
	C306.772064,169.294724 292.193115,165.365326 280.103882,153.511948 
	C265.509674,139.202408 262.058380,113.906242 273.793854,96.758049 
	C277.190002,91.795532 281.706390,87.599640 286.069763,82.985886 
z"/>
<path fill="#FFFFFF" opacity="1.000000" stroke="none" 
	d="
M1789.285889,202.071350 
	C1813.920532,202.017136 1838.079102,202.017136 1862.853638,202.017136 
	C1862.853638,213.676392 1862.853638,225.214584 1862.853638,236.752792 
	C1863.251343,236.943619 1863.649048,237.134460 1864.046753,237.325287 
	C1865.057617,236.360687 1866.342529,235.560989 1867.037231,234.406189 
	C1874.693237,221.680710 1885.552246,212.257950 1898.432251,205.400940 
	C1908.822388,199.869522 1920.145386,196.478775 1932.045410,196.049988 
	C1947.052612,195.509247 1961.875977,196.598373 1976.438599,200.904358 
	C1995.790894,206.626526 2010.416992,217.997177 2019.927246,235.770615 
	C2026.851440,248.710983 2030.640869,262.642120 2031.983276,277.220734 
	C2032.797729,286.065857 2033.830444,294.931305 2033.919067,303.796112 
	C2034.420410,353.889801 2034.666382,403.986053 2034.991943,454.081482 
	C2034.997070,454.882904 2034.907837,455.684906 2034.848877,456.733246 
	C2008.671631,456.733246 1982.732788,456.733246 1956.000000,456.733246 
	C1956.000000,454.968811 1956.000000,453.058685 1956.000000,451.148560 
	C1956.000000,405.484680 1956.276123,359.817719 1955.763062,314.159607 
	C1955.662720,305.220337 1953.239380,296.090179 1950.587646,287.446838 
	C1946.509888,274.155792 1936.319946,266.851837 1922.944092,265.244415 
	C1910.811035,263.786316 1898.500122,264.523956 1887.592529,271.194641 
	C1876.663818,277.878235 1871.492065,288.632843 1869.166504,300.600647 
	C1867.391724,309.734070 1866.209717,319.130920 1866.137329,328.421295 
	C1865.819214,369.249664 1866.000000,410.081879 1866.000000,450.912720 
	C1866.000000,452.724792 1866.000000,454.536835 1866.000000,456.673523 
	C1840.006470,456.673523 1814.283447,456.673523 1788.215576,456.673523 
	C1788.143066,455.041504 1788.008789,453.429443 1788.008667,451.817383 
	C1787.998535,370.322388 1787.995117,288.827362 1788.033936,207.332382 
	C1788.034790,205.596664 1788.539917,203.861176 1789.285889,202.071350 
z"/>
<path fill="#FFFFFF" opacity="1.000000" stroke="none" 
	d="
M1736.541748,202.470261 
	C1736.916626,220.476471 1736.990356,238.140991 1736.994385,255.805496 
	C1737.008789,320.638519 1737.000000,385.471527 1737.000000,450.304565 
	C1737.000000,452.293579 1737.000000,454.282593 1737.000000,456.635406 
	C1711.082886,456.635406 1685.358398,456.635406 1659.316162,456.635406 
	C1659.316162,371.983307 1659.316162,287.259705 1659.316162,202.128555 
	C1684.994141,202.128555 1710.601440,202.128555 1736.541748,202.470261 
z"/>
<path fill="#FFFFFF" opacity="1.000000" stroke="none" 
	d="
M1739.353394,101.817551 
	C1741.068604,108.091606 1743.713623,114.065788 1743.727905,120.046249 
	C1743.752319,130.243073 1740.645752,140.012115 1734.202881,148.209183 
	C1723.175293,162.239014 1708.376953,168.252228 1690.919312,165.829697 
	C1673.400146,163.398666 1658.524536,149.728897 1654.155884,132.507767 
	C1650.056885,116.349182 1653.912720,101.441643 1665.408569,89.342934 
	C1672.682251,81.687645 1681.928101,77.163879 1692.863159,75.858536 
	C1707.807739,74.074577 1720.085815,79.075386 1730.457520,89.178566 
	C1733.992065,92.621468 1736.255493,97.369080 1739.353394,101.817551 
z"/>
<path fill="#FFFFFF" opacity="1.000000" stroke="none" 
	d="
M2150.688477,483.809875 
	C2159.741211,473.556702 2170.538574,469.971558 2183.616211,472.952301 
	C2196.202148,475.820984 2206.651611,489.859772 2207.281006,502.128143 
	C2208.003906,516.215454 2196.246582,531.514893 2183.063721,534.510742 
	C2162.556885,539.171143 2144.471924,523.272583 2143.877686,505.623779 
	C2143.603271,497.479767 2145.882812,490.531403 2150.688477,483.809875 
M2184.158691,522.603638 
	C2186.646240,523.182373 2189.134033,523.761108 2191.621582,524.339844 
	C2191.803711,523.916992 2191.986084,523.494202 2192.168213,523.071411 
	C2188.811035,517.832275 2185.453613,512.593201 2182.006104,507.213104 
	C2182.962646,506.667938 2183.489014,506.149384 2184.076904,506.066681 
	C2189.906006,505.246368 2191.183594,500.553009 2191.760986,496.083771 
	C2192.473145,490.573608 2189.355957,485.977448 2183.752197,485.075043 
	C2176.706299,483.940460 2169.456787,484.070007 2162.348145,483.657135 
	C2162.348145,497.720886 2162.348145,510.782745 2162.348145,523.782471 
	C2164.644775,523.782471 2166.591309,523.782471 2169.000977,523.782471 
	C2169.000977,518.160034 2169.000977,512.736877 2169.000977,507.508057 
	C2173.079346,505.961456 2175.198730,507.819458 2176.950439,510.684723 
	C2179.242188,514.433105 2181.626709,518.124451 2184.158691,522.603638 
z"/>
<path fill="#FFFFFF" opacity="1.000000" stroke="none" 
	d="
M1332.035645,270.991577 
	C1346.891235,263.574860 1362.141235,262.520081 1377.857178,265.412323 
	C1389.553467,267.564850 1400.017700,272.560333 1408.297729,280.992279 
	C1418.165771,291.041595 1423.402466,303.387604 1425.191284,317.568176 
	C1427.182129,333.350342 1425.435791,348.259460 1418.178833,362.392303 
	C1409.199097,379.880157 1394.281616,388.878967 1375.287720,392.033691 
	C1362.718506,394.121368 1350.376587,393.450195 1338.466187,388.942963 
	C1318.209106,381.277161 1306.494751,366.325104 1301.961060,345.329224 
	C1299.279297,332.909973 1299.537476,320.710266 1302.817627,308.403564 
	C1307.233887,291.834076 1316.612061,279.311462 1332.035645,270.991577 
z"/>
<path fill="#FFFFFF" opacity="1.000000" stroke="none" 
	d="
M1048.000000,299.000000 
	C1036.530518,299.000000 1025.561035,299.000000 1014.568115,299.000000 
	C1017.752197,266.706726 1045.140625,251.190521 1067.239502,251.212662 
	C1082.877075,251.228317 1096.892822,256.343964 1107.148071,268.793945 
	C1114.145630,277.289185 1117.673706,287.320862 1118.018433,299.000000 
	C1094.658813,299.000000 1071.579346,299.000000 1048.000000,299.000000 
z"/>
<path fill="#2867B2" opacity="1.000000" stroke="none" 
	d="
M2184.064941,522.222046 
	C2181.626709,518.124451 2179.242188,514.433105 2176.950439,510.684723 
	C2175.198730,507.819458 2173.079346,505.961456 2169.000977,507.508057 
	C2169.000977,512.736877 2169.000977,518.160034 2169.000977,523.782471 
	C2166.591309,523.782471 2164.644775,523.782471 2162.348145,523.782471 
	C2162.348145,510.782745 2162.348145,497.720886 2162.348145,483.657135 
	C2169.456787,484.070007 2176.706299,483.940460 2183.752197,485.075043 
	C2189.355957,485.977448 2192.473145,490.573608 2191.760986,496.083771 
	C2191.183594,500.553009 2189.906006,505.246368 2184.076904,506.066681 
	C2183.489014,506.149384 2182.962646,506.667938 2182.006104,507.213104 
	C2185.453613,512.593201 2188.811035,517.832275 2192.168213,523.071411 
	C2191.986084,523.494202 2191.803711,523.916992 2191.621582,524.339844 
	C2189.134033,523.761108 2186.646240,523.182373 2184.064941,522.222046 
M2169.017334,491.738342 
	C2169.017334,495.025604 2169.017334,498.312866 2169.017334,502.368896 
	C2173.233643,501.861267 2177.132568,502.006805 2180.508057,500.748108 
	C2182.441406,500.027100 2184.399414,497.141510 2184.686035,495.007416 
	C2184.882080,493.549011 2182.371826,490.483643 2180.792236,490.277588 
	C2176.990479,489.781677 2173.024414,490.544403 2169.017334,491.738342 
z"/>
<path fill="#FFFFFF" opacity="1.000000" stroke="none" 
	d="
M2169.071045,491.268890 
	C2173.024414,490.544403 2176.990479,489.781677 2180.792236,490.277588 
	C2182.371826,490.483643 2184.882080,493.549011 2184.686035,495.007416 
	C2184.399414,497.141510 2182.441406,500.027100 2180.508057,500.748108 
	C2177.132568,502.006805 2173.233643,501.861267 2169.017334,502.368896 
	C2169.017334,498.312866 2169.017334,495.025604 2169.071045,491.268890 
z"/>
</svg>